<svg id="svg" xmlns="http://www.w3.org/2000/svg" xmlns:xlink="http://www.w3.org/1999/xlink" width="400" height="333.9805825242719" viewBox="0, 0, 400,333.9805825242719"><g id="svgg"><path id="path0" d="M102.670 25.320 C 100.540 26.561,100.057 57.921,102.136 60.000 C 103.833 61.697,134.327 61.631,135.741 59.927 C 136.307 59.246,136.906 56.515,137.074 53.859 L 137.379 49.029 152.184 48.761 L 166.990 48.493 166.990 53.639 L 166.990 58.785 159.038 62.645 C 144.890 69.512,126.181 84.685,118.892 95.203 L 116.190 99.103 108.338 98.823 L 100.485 98.544 100.185 93.233 C 99.736 85.310,100.030 85.437,82.114 85.437 C 62.528 85.437,64.078 83.844,64.078 103.974 C 64.078 123.242,62.101 121.364,82.361 121.344 C 100.100 121.327,99.794 121.444,100.184 114.542 C 100.482 109.290,100.526 109.219,103.733 108.912 C 109.488 108.361,110.086 109.137,107.512 113.820 C 101.537 124.693,97.490 137.922,96.442 150.000 C 95.659 159.030,96.031 158.785,83.626 158.435 L 72.905 158.133 72.618 152.125 L 72.330 146.117 54.854 146.117 L 37.379 146.117 37.379 163.107 L 37.379 180.097 54.854 180.097 L 72.330 180.097 72.622 174.484 L 72.914 168.871 84.273 169.144 L 95.631 169.417 95.871 172.330 C 96.325 177.831,98.254 189.660,99.026 191.674 C 99.450 192.782,100.361 195.655,101.048 198.058 C 101.736 200.461,103.966 205.861,106.004 210.059 C 110.684 219.699,110.685 220.388,106.019 220.388 C 101.182 220.388,100.000 219.023,100.000 213.432 C 100.000 207.156,99.034 206.793,82.345 206.809 C 61.996 206.829,63.984 204.811,64.298 225.119 L 64.563 242.233 82.039 242.233 L 99.515 242.233 99.816 236.914 C 100.183 230.433,100.614 230.131,109.534 230.112 L 116.640 230.097 126.046 239.589 C 137.046 250.689,145.545 257.026,157.713 263.197 L 166.505 267.656 166.505 273.876 L 166.505 280.097 151.942 280.097 L 137.379 280.097 137.078 274.778 C 136.686 267.864,137.033 267.993,118.808 267.976 C 99.331 267.958,100.852 266.313,101.190 287.022 L 101.456 303.398 118.932 303.398 L 136.408 303.398 136.893 297.573 L 137.379 291.748 156.311 291.493 C 178.827 291.191,177.670 291.850,177.670 279.322 C 177.670 271.724,177.863 270.740,179.250 271.273 C 190.361 275.536,218.153 275.741,235.922 271.691 C 237.117 271.419,237.429 272.917,237.662 280.047 C 238.050 291.943,236.763 291.262,258.857 291.262 L 277.670 291.262 277.670 296.408 C 277.670 303.881,277.675 303.883,296.117 303.883 C 316.088 303.883,314.563 305.309,314.563 286.635 C 314.563 266.451,316.042 267.961,296.277 267.961 C 277.659 267.961,277.670 267.957,277.670 275.437 L 277.670 280.583 263.107 280.583 L 248.544 280.583 248.544 273.762 C 248.544 267.342,248.689 266.887,251.024 265.999 C 264.414 260.908,276.928 252.119,289.543 238.944 L 298.014 230.097 305.684 230.097 C 314.606 230.097,315.285 230.591,315.715 237.403 L 316.019 242.233 333.495 242.233 L 350.971 242.233 351.238 225.733 C 351.569 205.279,353.000 206.796,333.389 206.796 C 315.399 206.796,315.534 206.754,315.534 212.304 C 315.534 218.633,314.275 220.388,309.732 220.388 C 304.399 220.388,304.307 219.555,308.635 210.481 C 314.860 197.427,319.417 181.189,319.417 172.057 L 319.417 168.870 330.734 169.144 L 342.051 169.417 342.142 174.757 L 342.233 180.097 360.194 180.097 L 378.155 180.097 378.433 165.049 C 378.833 143.424,380.896 145.631,360.280 145.631 C 340.746 145.631,341.748 145.210,341.748 153.415 L 341.748 158.127 331.533 158.433 C 319.107 158.804,319.417 158.903,319.417 154.589 C 319.417 145.882,314.602 128.136,309.169 116.823 C 305.003 108.149,304.935 108.574,310.437 108.927 L 315.049 109.223 315.350 114.542 C 315.740 121.444,315.434 121.327,333.173 121.344 C 353.433 121.364,351.456 123.242,351.456 103.974 C 351.456 83.844,353.006 85.437,333.420 85.437 C 315.504 85.437,315.798 85.310,315.349 93.233 L 315.049 98.544 307.182 98.823 L 299.316 99.103 296.532 95.425 C 286.712 82.453,266.084 66.158,252.913 60.969 L 249.029 59.439 249.029 53.749 L 249.029 48.058 263.107 48.058 L 277.184 48.058 277.685 53.686 C 278.344 61.094,278.442 61.133,296.290 61.150 C 315.912 61.169,314.563 62.530,314.563 42.718 C 314.563 22.896,315.939 24.272,296.117 24.272 C 278.191 24.272,277.670 24.493,277.670 32.108 L 277.670 36.893 259.645 36.893 C 237.197 36.893,237.864 36.592,237.864 46.738 L 237.864 54.573 234.223 54.103 C 232.221 53.845,226.650 53.089,221.845 52.424 C 211.794 51.033,192.841 51.701,184.251 53.748 C 177.488 55.360,177.670 55.529,177.670 47.597 C 177.670 37.211,178.177 37.463,156.148 36.893 L 137.379 36.408 137.094 31.553 C 136.912 28.448,136.232 26.262,135.209 25.485 C 133.221 23.977,105.220 23.835,102.670 25.320 M125.728 42.718 L 125.728 50.000 118.932 50.000 L 112.136 50.000 111.843 43.792 C 111.423 34.877,111.477 34.813,119.161 35.150 L 125.728 35.437 125.728 42.718 M302.878 36.829 C 303.983 38.894,304.189 44.879,303.272 48.301 C 302.516 51.120,289.989 51.687,288.939 48.950 C 287.905 46.257,288.306 37.325,289.515 36.117 C 291.546 34.085,301.699 34.626,302.878 36.829 M230.393 64.499 C 261.096 71.876,285.370 91.595,299.337 120.508 C 301.304 124.578,302.913 128.407,302.913 129.016 C 302.913 129.625,303.302 130.882,303.778 131.809 C 312.544 148.888,310.589 182.153,299.433 205.717 C 269.617 268.696,193.763 283.883,138.554 237.927 C 135.613 235.479,124.922 222.263,121.618 216.990 C 106.495 192.860,102.639 168.045,109.246 137.379 C 117.018 101.301,153.866 68.731,193.689 62.739 C 199.929 61.800,223.955 62.953,230.393 64.499 M87.785 95.735 C 90.022 96.593,90.022 110.203,87.785 111.061 C 85.417 111.970,77.358 111.730,75.733 110.703 C 74.356 109.833,74.089 98.014,75.397 95.874 C 75.929 95.004,85.597 94.895,87.785 95.735 M339.241 95.735 C 340.447 96.198,340.777 97.843,340.777 103.398 C 340.777 108.953,340.447 110.598,339.241 111.061 C 336.548 112.095,327.616 111.694,326.408 110.485 C 324.887 108.965,324.887 97.831,326.408 96.311 C 327.616 95.102,336.548 94.702,339.241 95.735 M148.220 104.531 C 146.962 105.789,147.469 220.867,148.738 222.136 C 149.618 223.016,164.105 223.301,207.985 223.301 L 266.067 223.301 267.014 220.811 C 268.343 217.316,268.288 108.250,266.956 105.761 C 265.936 103.856,150.095 102.656,148.220 104.531 M255.756 115.118 C 257.066 116.428,257.282 120.264,257.282 142.233 C 257.282 170.543,257.215 170.854,251.144 170.894 C 246.959 170.922,235.616 175.025,229.899 178.579 L 225.224 181.485 222.650 177.393 C 218.124 170.196,209.624 162.910,200.371 158.297 C 187.021 151.640,183.872 150.723,168.932 149.139 L 158.738 148.058 158.471 131.626 C 158.268 119.129,158.500 115.005,159.442 114.408 C 162.045 112.756,254.072 113.434,255.756 115.118 M226.570 123.915 C 220.325 125.308,213.592 134.627,213.592 141.877 C 213.592 156.328,232.277 165.656,243.321 156.718 C 259.579 143.559,247.198 119.314,226.570 123.915 M238.396 136.550 C 243.334 141.878,239.959 149.539,232.697 149.484 C 224.415 149.421,221.264 141.928,226.901 135.700 C 229.376 132.964,235.492 133.417,238.396 136.550 M62.300 162.379 C 62.269 165.983,62.220 169.369,62.190 169.903 C 62.159 170.459,59.026 170.874,54.854 170.874 L 47.573 170.874 47.573 163.066 L 47.573 155.258 54.965 155.542 L 62.357 155.825 62.300 162.379 M367.476 163.107 L 367.476 170.388 360.194 170.388 L 352.913 170.388 352.628 162.822 L 352.344 155.257 359.910 155.541 L 367.476 155.825 367.476 163.107 M179.666 161.048 C 196.166 165.100,207.811 173.050,215.892 185.778 C 217.624 188.506,217.615 188.585,215.292 191.118 C 211.816 194.909,208.628 199.731,205.258 206.300 L 202.263 212.136 180.500 212.136 L 158.738 212.136 158.478 186.909 C 158.336 173.034,158.431 161.129,158.691 160.453 C 159.401 158.601,171.046 158.931,179.666 161.048 M256.814 182.767 C 257.111 183.968,257.229 191.068,257.075 198.544 L 256.796 212.136 235.680 212.398 C 212.025 212.691,212.935 213.025,217.241 205.611 C 225.817 190.846,254.690 174.179,256.814 182.767 M89.119 225.000 L 88.835 232.524 82.039 232.524 L 75.243 232.524 74.757 225.402 C 74.171 216.803,73.536 217.476,82.241 217.476 L 89.402 217.476 89.119 225.000 M340.777 224.653 C 340.777 232.802,340.583 233.010,333.010 233.010 C 325.526 233.010,325.243 232.728,325.243 225.301 C 325.243 217.254,325.004 217.476,333.657 217.476 L 340.777 217.476 340.777 224.653 M126.013 286.165 L 126.299 293.204 118.975 293.204 L 111.650 293.204 111.650 286.570 C 111.650 278.427,111.581 278.497,119.376 278.844 L 125.728 279.126 126.013 286.165 M303.440 280.890 C 303.750 282.126,303.868 285.294,303.701 287.928 L 303.398 292.718 296.117 292.718 L 288.835 292.718 288.541 287.054 C 288.152 279.552,289.036 278.641,296.702 278.641 C 302.347 278.641,302.924 278.833,303.440 280.890 " stroke="none" fill="#000000" fill-rule="evenodd"></path></g></svg>