<?xml version="1.0" encoding="iso-8859-1"?>
<!-- Generator: Adobe Illustrator 19.0.0, SVG Export Plug-In . SVG Version: 6.00 Build 0)  -->
<svg version="1.1" id="Layer_1" xmlns="http://www.w3.org/2000/svg" xmlns:xlink="http://www.w3.org/1999/xlink" x="0px" y="0px"
	 viewBox="0 0 512 512" style="enable-background:new 0 0 512 512;" xml:space="preserve">
<rect x="7.286" y="7.286" style="fill:#259245;" width="497.43" height="497.43"/>
<path d="M504.714,512H7.286C3.262,512,0,508.738,0,504.714V7.286C0,3.262,3.262,0,7.286,0h33.162c4.025,0,7.286,3.262,7.286,7.286
	s-3.262,7.287-7.286,7.287H14.573v482.854h482.854V14.573H73.61c-4.025,0-7.287-3.262-7.287-7.287S69.585,0,73.61,0h431.103
	C508.738,0,512,3.262,512,7.286v497.427C512,508.738,508.738,512,504.714,512z"/>
<polygon style="fill:#FFE000;" points="256,374.81 51.502,256 256,137.19 460.498,256 "/>
<path d="M256,382.097c-1.265,0-2.528-0.328-3.66-0.986L47.842,262.301c-2.245-1.305-3.626-3.705-3.626-6.301
	s1.382-4.996,3.626-6.301l204.498-118.81c2.264-1.315,5.057-1.315,7.321,0l204.498,118.81c2.245,1.305,3.626,3.705,3.626,6.301
	c0,2.596-1.382,4.996-3.626,6.301l-32.303,18.767c-3.48,2.02-7.939,0.841-9.961-2.64c-2.021-3.479-0.84-7.939,2.64-9.961
	L445.993,256L256,145.617L66.007,256L256,366.383l139.861-81.258c3.478-2.021,7.938-0.841,9.961,2.64
	c2.021,3.479,0.84,7.939-2.64,9.961L259.66,381.111C258.528,381.768,257.265,382.097,256,382.097z"/>
<circle style="fill:#103B9B;" cx="256" cy="256" r="67.47"/>
<path style="fill:#FFFFFF;" d="M316.265,293.777c-2.7,0-5.294-1.507-6.556-4.097c-10.094-20.712-27.403-36.941-48.741-45.697
	c-21.334-8.755-45.052-9.367-66.782-1.72c-3.794,1.333-7.956-0.66-9.292-4.455c-1.335-3.796,0.66-7.956,4.455-9.292
	c25.106-8.835,52.506-8.129,77.152,1.986c24.649,10.116,44.646,28.865,56.308,52.796c1.763,3.617,0.259,7.979-3.359,9.742
	C318.423,293.54,317.336,293.777,316.265,293.777z"/>
<path d="M256,330.753c-41.219,0-74.753-33.534-74.753-74.753s33.534-74.753,74.753-74.753s74.753,33.534,74.753,74.753
	S297.219,330.753,256,330.753z M256,195.82c-33.183,0-60.18,26.997-60.18,60.18s26.997,60.18,60.18,60.18s60.18-26.997,60.18-60.18
	S289.183,195.82,256,195.82z"/>
<g>
</g>
<g>
</g>
<g>
</g>
<g>
</g>
<g>
</g>
<g>
</g>
<g>
</g>
<g>
</g>
<g>
</g>
<g>
</g>
<g>
</g>
<g>
</g>
<g>
</g>
<g>
</g>
<g>
</g>
</svg>
